<svg width="41" height="40" viewBox="0 0 41 40" fill="none" xmlns="http://www.w3.org/2000/svg">
<path d="M15.6917 7.5C8.86796 7.5 8.33331 8.03402 8.33331 14.8584V25.1416C8.33331 31.9654 8.86796 32.5 15.6917 32.5H25.9749C32.7987 32.5 33.3333 31.966 33.3333 25.1416V14.8584C33.3333 8.03402 32.7993 7.5 25.9749 7.5H15.6917ZM14.0633 10H27.6033C30.599 10 30.8333 10.2344 30.8333 13.23V26.77C30.8333 29.7656 30.5983 30 27.6033 30H24.9691V22.5244H27.9293L28.3956 19.198H24.9691C24.9691 19.198 24.9641 17.2495 24.9691 16.7639C24.9791 15.8133 25.7734 15.3325 26.4559 15.3394C27.1384 15.3469 28.5518 15.3418 28.5518 15.3418V12.2754C28.5518 12.2754 27.3282 12.1164 26.0445 12.1033C24.9657 12.092 23.7745 12.3845 22.8133 13.3533C21.8352 14.3383 21.6809 15.8058 21.6622 17.5989C21.6565 18.117 21.6622 19.1968 21.6622 19.1968H18.7654V22.5232H21.6622V30H14.0633C11.0677 30 10.8333 29.765 10.8333 26.77V13.23C10.8333 10.2344 11.0677 10 14.0633 10Z" fill="white" fill-opacity="0.8"/>
</svg>
