<svg width="40" height="40" viewBox="0 0 40 40" fill="none" xmlns="http://www.w3.org/2000/svg">
<path d="M35.625 10.6962C34.8 11.9294 33.7556 13.0131 32.5525 13.8819C32.5637 14.1462 32.57 14.4112 32.57 14.6781C32.57 22.8112 26.3812 32.1894 15.06 32.1894C11.5837 32.1894 7.05374 30.9719 5.62561 29.425C6.10811 29.4825 6.59811 29.5112 7.09436 29.5112C9.97873 29.5112 12.6325 28.5269 14.7381 26.8762C12.045 26.8269 9.77186 25.0462 8.98874 22.6012C10.2137 22.7937 11.7681 22.495 11.7681 22.495C11.7681 22.495 6.95561 21.6687 6.83124 16.3831C8.22249 17.19 9.61874 17.1525 9.61874 17.1525C9.61874 17.1525 6.84311 15.4437 6.88186 12.0306C6.90498 10.0175 7.71374 8.935 7.71374 8.935C12.9725 15.4106 20.4 15.3662 20.4 15.3662C20.4 15.3662 20.2406 14.4469 20.2406 13.9644C20.2406 10.5662 22.9956 7.81 26.395 7.81C28.165 7.81 29.7644 8.5575 30.8869 9.75437C32.29 9.4775 33.6075 8.965 34.7962 8.26C34.2594 10.41 32.0906 11.665 32.0906 11.665C32.0906 11.665 33.9462 11.4594 35.625 10.6962ZM15.0881 29.6894C20.2969 29.9244 29.5606 25.6931 30.07 14.6781C30.0744 14.5781 30.09 14.3987 30.0806 14.2369C30.0681 14.0281 30.1719 13.8894 30.2587 13.7981C30.4012 13.6475 30.5556 13.4644 30.7025 13.1912C30.8269 12.9606 30.7506 12.8625 30.5969 12.8356C30.4925 12.8175 30.3844 12.7912 30.2644 12.765C30.05 12.7181 29.9569 12.5175 30.0581 12.3137C30.1269 12.1756 30.2187 11.9844 30.2862 11.785C30.3531 11.5887 30.2662 11.5437 30.1169 11.57C29.9931 11.5912 29.85 11.6181 29.7219 11.6419C29.5231 11.6787 29.3175 11.6387 29.1231 11.4156C28.3694 10.5481 27.5531 10.3106 26.3944 10.3106C24.3656 10.3106 22.74 11.95 22.74 13.965C22.74 14.52 22.8831 15.1869 22.9831 15.8312C23.17 17.0344 22.6375 18.1694 20.7931 18.0256C18.0837 17.8144 13.915 17.2212 10.7419 14.8794C11.0575 15.5037 11.8156 16.4687 12.4175 17.1931C12.885 17.7556 12.7394 18.6269 12.135 18.9106C11.8319 19.0531 11.4644 19.1719 11.0419 19.2487C12.1506 20.1456 13.4237 20.7269 14.3981 21.1406C15.6194 21.6587 15.9556 22.5006 15.2056 23.3394C14.9362 23.6406 14.5881 23.945 14.1381 24.2156C14.6794 24.5894 15.5869 24.9025 16.625 25.0712C17.6731 25.2419 18.3625 26.3925 17.285 27.82C16.7606 28.515 16.0106 29.1825 15.0881 29.6894Z" fill="white" fill-opacity="0.8"/>
</svg>
