<svg width="40" height="40" viewBox="0 0 40 40" fill="none" xmlns="http://www.w3.org/2000/svg">
<path d="M14.8584 7.5C8.03465 7.5 7.5 8.03402 7.5 14.8584V25.1416C7.5 31.9654 8.03465 32.5 14.8584 32.5H25.1416C31.9654 32.5 32.5 31.966 32.5 25.1416V14.8584C32.5 8.03402 31.966 7.5 25.1416 7.5H14.8584ZM13.23 10H26.77C29.7656 10 30 10.2344 30 13.23V26.77C30 29.7656 29.765 30 26.77 30H13.23C10.2344 30 10 29.765 10 26.77V13.23C10 10.2344 10.2344 10 13.23 10ZM14.0637 11.5649C13.0456 11.5649 12.2205 12.3901 12.2205 13.407C12.2205 14.4239 13.045 15.2502 14.0637 15.2502C15.0793 15.2502 15.9045 14.4245 15.9045 13.407C15.9045 12.3914 15.0793 11.5649 14.0637 11.5649ZM23.7085 16.4514C22.171 16.4514 21.1396 17.2951 20.7178 18.0945H20.6738V16.7053H17.6428V26.875H20.8008V21.8433C20.8008 20.5164 21.0546 19.2322 22.699 19.2322C24.3202 19.2322 24.3408 20.7506 24.3408 21.9299V26.875H27.5V21.2964C27.5 18.5576 26.9091 16.4514 23.7085 16.4514ZM12.4829 16.7053V26.875H15.6433V16.7053H12.4829Z" fill="white"/>
</svg>
