<svg width="40" height="40" viewBox="0 0 40 40" fill="none" xmlns="http://www.w3.org/2000/svg">
<path d="M7.08356 0H32.9164C36.8329 0 40 3.24733 40 7.26502V32.735C40 36.7518 36.8338 40 32.9164 40H7.08356C3.16711 40 0 36.7527 0 32.735V7.26502C0 3.24825 3.16622 0 7.08356 0Z" fill="#001E36"/>
<path d="M9 28.0509V10.4622C9 10.3428 9.04978 10.2744 9.16711 10.2744C9.45067 10.2744 9.71733 10.2744 10.1004 10.2571C10.5004 10.2398 10.9173 10.2398 11.3671 10.2224C11.8169 10.2051 12.3004 10.2051 12.8169 10.1878C13.3333 10.1705 13.8338 10.1705 14.3333 10.1705C15.7004 10.1705 16.8329 10.3419 17.7662 10.7001C18.6 10.991 19.3662 11.4696 19.9991 12.1023C20.5324 12.6493 20.9493 13.3157 21.216 14.0514C21.4658 14.7689 21.5991 15.5046 21.5991 16.274C21.5991 17.7436 21.2658 18.958 20.5991 19.9152C19.9324 20.8724 18.9991 21.5908 17.9156 22.0011C16.7822 22.4287 15.5324 22.5818 14.1653 22.5818C13.7653 22.5818 13.4987 22.5818 13.3316 22.5645C13.1644 22.5472 12.9316 22.5472 12.6151 22.5472V28.0345C12.632 28.1539 12.5484 28.2569 12.432 28.2733C12.4151 28.2733 12.3982 28.2733 12.3653 28.2733H9.2C9.06667 28.2733 9 28.2049 9 28.0509ZM12.6329 13.5728V19.3162C12.8667 19.3336 13.0827 19.3509 13.2827 19.3509H14.1662C14.816 19.3509 15.4658 19.2488 16.0827 19.0427C16.616 18.8887 17.0827 18.5641 17.4498 18.1366C17.8 17.709 17.9662 17.1283 17.9662 16.3761C17.9831 15.8465 17.8498 15.3168 17.5831 14.8546C17.2996 14.4097 16.8996 14.0687 16.4169 13.88C15.8 13.6238 15.1333 13.5208 14.4507 13.5381C14.0169 13.5381 13.6338 13.5381 13.3173 13.5555C12.9831 13.5381 12.7502 13.5555 12.6329 13.5728Z" fill="#31A8FF"/>
<path d="M32 18.2733C31.5004 17.9998 30.9671 17.812 30.4 17.6916C29.7831 17.5549 29.1662 17.4692 28.5333 17.4692C28.2 17.4519 27.8498 17.5029 27.5333 17.5886C27.3164 17.6397 27.1333 17.76 27.0169 17.9305C26.9333 18.0673 26.8835 18.2386 26.8835 18.3918C26.8835 18.5459 26.9502 18.6999 27.0506 18.8367C27.2009 19.0245 27.4009 19.1786 27.6178 19.298C28.0009 19.5031 28.4009 19.6909 28.8009 19.8623C29.7004 20.1705 30.568 20.5971 31.368 21.1104C31.9182 21.4696 32.368 21.9482 32.6844 22.5289C32.9511 23.0759 33.0844 23.674 33.0675 24.2893C33.0844 25.0925 32.8506 25.8957 32.4178 26.563C31.9511 27.2468 31.3013 27.7764 30.5511 28.0846C29.7342 28.4438 28.7342 28.6316 27.5342 28.6316C26.7671 28.6316 26.0178 28.5632 25.2675 28.4091C24.6844 28.3061 24.1013 28.1183 23.568 27.8621C23.4515 27.7938 23.368 27.6743 23.3849 27.5376V24.5637C23.3849 24.5127 23.4018 24.4443 23.4515 24.4097C23.5013 24.375 23.5511 24.3923 23.6018 24.427C24.2515 24.8199 24.9351 25.0934 25.6684 25.2648C26.3013 25.4362 26.968 25.521 27.6346 25.521C28.2684 25.521 28.7182 25.4353 29.0178 25.2821C29.2844 25.1627 29.4675 24.8719 29.4675 24.5637C29.4675 24.3249 29.3342 24.1024 29.0675 23.88C28.8009 23.6576 28.2506 23.4014 27.4338 23.0768C26.584 22.7687 25.8 22.3584 25.0675 21.8461C24.5511 21.4705 24.1173 20.9745 23.8009 20.3929C23.5342 19.8459 23.4009 19.2479 23.4178 18.6498C23.4178 17.915 23.6178 17.2139 23.9849 16.5812C24.4018 15.8975 25.0178 15.3505 25.7351 15.0086C26.5182 14.5984 27.5022 14.4106 28.6853 14.4106C29.3689 14.4106 30.0684 14.4616 30.752 14.5647C31.2515 14.633 31.7351 14.7698 32.1858 14.9576C32.2524 14.9749 32.3191 15.0433 32.3529 15.1117C32.3698 15.18 32.3858 15.2484 32.3858 15.3168V18.1028C32.3858 18.1712 32.3529 18.2396 32.3022 18.2742C32.1502 18.3079 32.0666 18.3079 32 18.2733Z" fill="#31A8FF"/>
</svg>
