<svg width="40" height="40" viewBox="0 0 40 40" fill="none" xmlns="http://www.w3.org/2000/svg">
<path d="M26.2469 12.5C26.9375 12.4981 27.4981 13.0563 27.5 13.7469C27.5019 14.4375 26.9438 14.9981 26.2531 15C25.5625 15.0019 25.0019 14.4438 25 13.7531C24.9981 13.0625 25.5563 12.5019 26.2469 12.5Z" fill="white" fill-opacity="0.8"/>
<path d="M19.985 13.75C23.4363 13.7419 26.2419 16.5338 26.25 19.985C26.2581 23.4363 23.4663 26.2419 20.015 26.25C16.5638 26.2581 13.7581 23.4663 13.75 20.015C13.7419 16.5638 16.5338 13.7581 19.985 13.75ZM20.0088 23.75C22.0794 23.745 23.7544 22.0619 23.75 19.9913C23.745 17.9206 22.0619 16.245 19.9913 16.25C17.9206 16.255 16.245 17.9381 16.25 20.0088C16.255 22.08 17.9381 23.755 20.0088 23.75Z" fill="white" fill-opacity="0.8"/>
<path d="M32.5 20V20.1125C32.5 31.6006 31.6006 32.5 20.1125 32.5H19.8875C8.39937 32.5 7.5 31.6006 7.5 20.1125V19.8875C7.5 8.39937 8.39937 7.5 19.8875 7.5H20C31.5925 7.5 32.5 8.4075 32.5 20ZM30 22.5V17.5C30 10.5444 29.4556 10 22.5 10H17.5C10.5444 10 10 10.5444 10 17.5V22.5C10 29.4556 10.5444 30 17.5 30H22.5C29.4556 30 30 29.4556 30 22.5Z" fill="white" fill-opacity="0.8"/>
</svg>
