<svg width="24" height="24" viewBox="0 0 24 24" fill="none" xmlns="http://www.w3.org/2000/svg">
<path fill-rule="evenodd" clip-rule="evenodd" d="M12 24C18.6274 24 24 18.6274 24 12C24 5.37258 18.6274 0 12 0C5.37258 0 0 5.37258 0 12C0 18.6274 5.37258 24 12 24ZM12 21.8592C6.55493 21.8592 2.14083 17.4451 2.14083 12C2.14083 6.55493 6.55493 2.14083 12 2.14083C17.4451 2.14083 21.8592 6.55493 21.8592 12C21.8592 17.4451 17.4451 21.8592 12 21.8592ZM9.068 17.352C10.1 17.904 11.252 18.18 12.524 18.18C13.556 18.18 14.498 18 15.35 17.64C16.214 17.28 16.94 16.758 17.528 16.074L16.016 14.634C15.104 15.63 13.982 16.128 12.65 16.128C11.786 16.128 11.012 15.942 10.328 15.57C9.644 15.186 9.11 14.658 8.726 13.986C8.342 13.314 8.15 12.552 8.15 11.7C8.15 10.848 8.342 10.086 8.726 9.414C9.11 8.742 9.644 8.22 10.328 7.848C11.012 7.464 11.786 7.272 12.65 7.272C13.982 7.272 15.104 7.764 16.016 8.748L17.528 7.326C16.94 6.642 16.22 6.12 15.368 5.76C14.516 5.4 13.574 5.22 12.542 5.22C11.27 5.22 10.118 5.502 9.086 6.066C8.066 6.618 7.262 7.386 6.674 8.37C6.086 9.354 5.792 10.464 5.792 11.7C5.792 12.936 6.08 14.046 6.656 15.03C7.244 16.014 8.048 16.788 9.068 17.352Z" fill="white"/>
</svg>
